<svg xmlns="http://www.w3.org/2000/svg" width="364.336" height="39.246" viewBox="0 0 364.336 39.246">
  <path id="Path_867" data-name="Path 867" d="M-166.74,3.28c.12,0,.28.04.28.24l.96-.6a1.714,1.714,0,0,0,.88-1.12.712.712,0,0,1,.36-.28.419.419,0,0,1,.12.24h.04l.08-.12c.16-.12.44-.04.6-.16.16-.2.24-.36.44-.4.28-.12.12-.36.16-.6.12-.04.16-.16.2-.32-.08,0-.2,0-.24.08-.56.32-.96.68-1.4.92a9.167,9.167,0,0,0-.92.68c-.12.12-.28.4-.4.44a8.257,8.257,0,0,0-1.76.96l-1.44.8c-.2.04-.4.2-.64.28a11.987,11.987,0,0,1-2.16,1.04c-.12.04-.4-.08-.52.2h-.12c-.04,0-.08-.12-.16-.16-.04-.04-.04-.12,0-.12.44-.16.92-.48,1.4-.68l.4-.16c0,.04,0,.2.16.04-.04,0-.04,0-.16-.04V4.4c.48-.48,1.12-.64,1.52-1.12a.781.781,0,0,1,.28-.04c.2-.08.4,0,.48-.28,0-.04.16-.12.2-.24a.078.078,0,0,0,.08-.08h.44c.16-.04-.08-.36.24-.36.56-.48,1.2-.76,1.76-1.32.4-.12.64-.56,1.04-.64l2.04-1.4.36-.56c-.16.08-.32,0-.36.08l-.96.68-.88.56c-.32.16-.56.56-.92.76-.32.12-.6.36-.92.52a12.582,12.582,0,0,1-2.6,1.68l-.28.28a7.337,7.337,0,0,1-1.2.72,14.324,14.324,0,0,1-1.8.84,3.379,3.379,0,0,1-1.32.64c-.68.28-1.28.44-1.84.64-.4.12-.88,0-1.2.2a.487.487,0,0,1-.52,0,10.649,10.649,0,0,1-1.32-.32,2.115,2.115,0,0,1-.6-.28.46.46,0,0,1-.24-.28c0-.48-.32-1-.28-1.44v-2a.441.441,0,0,1,.12-.36,1.446,1.446,0,0,0,.16-.84c.04-.28.16-.6.16-.8a3.629,3.629,0,0,0,.2-.84,1.108,1.108,0,0,1,.48-1.16,1.3,1.3,0,0,0,.4-.72l.32-.96a.2.2,0,0,0,.16-.2.879.879,0,0,1,.36-.76,4.625,4.625,0,0,0,.8-1c-.04-.36.24-.52.36-.68.32-.6.88-1,.8-1.76,0-.04.16-.08.24-.2.16-.04.16-.36.36-.4l.4-.32A8.775,8.775,0,0,0-172.9-11a7.252,7.252,0,0,1,1.28-1.64c.12-.32.52-.4.52-.8a2.67,2.67,0,0,1,.8-.72,5.066,5.066,0,0,0,.44-.52,2.759,2.759,0,0,1,1.08-1.16l.36-.32.4-.52a6.342,6.342,0,0,0,.44-.64,2.136,2.136,0,0,0,.64-.52c.32-.4.76-.76,1.08-1.24.2-.08.28-.32.52-.4.52-.36,1-.88,1.52-1.28a2.338,2.338,0,0,0,.84-.68c.32-.4.72-.68,1.04-1.04a1.137,1.137,0,0,1,.48-.16c.16-.08.28-.08.4-.24a1.74,1.74,0,0,1,.8-.52l.6-.36a9.856,9.856,0,0,1,1.36-.88l2.4-1.44a6.775,6.775,0,0,1,1.08-.52,4.395,4.395,0,0,0,.96-.36c.32-.4.72-.4,1.16-.6.32-.2.84-.12,1.16-.36a11.006,11.006,0,0,1,2.24-.64,4.206,4.206,0,0,1,1.76-.16.688.688,0,0,0,.32-.04c.32-.2.72-.12,1-.28l.96.48a3.8,3.8,0,0,1,1.04,2.16,11.155,11.155,0,0,0,0,1.16,3.53,3.53,0,0,1-.8,2.28,16.774,16.774,0,0,1-1.72,2.24c-.04.16-.16.24-.32.36l-.48.76s.08.2.12.2c.24.08.4.24.64.12a2.425,2.425,0,0,0,1.56-.84l1.48-1.48a6.458,6.458,0,0,0,1.16-1.64,1.421,1.421,0,0,0,.08-.4c.2-.4-.04-.72.2-1.08.04-.04,0-.08,0-.2a1.6,1.6,0,0,1-.12-.76c0-.36-.36-.44-.44-.72v-.2a4.588,4.588,0,0,0-1.68-2.12,7.713,7.713,0,0,0-.84-.52c-.32-.12-.68-.16-.84-.36,0-.08-.16-.08-.16-.08l-1.16-.08c-.2.08-.36-.16-.56,0a3.246,3.246,0,0,1-.68.04c-.12.04-.4,0-.52.04l-.68.24a9.808,9.808,0,0,1-1.08.08,1.24,1.24,0,0,0-.28.08c-.4.32-.88.32-1.24.52l-2.4.8c-.52.2-1,.52-1.52.72a4.293,4.293,0,0,1-.96.48c-.36.16-.64.36-1,.56-.36-.04-.6.32-.92.48a9.536,9.536,0,0,0-2.76,1.76.234.234,0,0,0-.16.04c-.4,0-.56.32-.84.6l-.36.24a12.7,12.7,0,0,0-2.76,1.96l-.64.56c-.4.4-.76.6-1.08.96a1.714,1.714,0,0,1-.6.6c-.24.2-.32.52-.6.64a.488.488,0,0,0-.32.36c-.16.24-.44.44-.64.68a10.521,10.521,0,0,0-1.32,1.36l-.8.92c-.32.36-.52.72-.84,1.04a4.488,4.488,0,0,0-1.2,1.68,7.912,7.912,0,0,0-1,1.36c-.12,0-.12.08-.12.12.2.32-.04.4-.16.4-.28,0-.4.16-.52.4-.12.2-.16.52-.44.56-.04.12-.04.16-.12.16a1.118,1.118,0,0,0-.2.32l-.04.12v.04l-.48.8c-.04.04-.04.2-.2.2l-.16.36c0,.12,0,.2-.12.28,0,0,0,.08-.04.08l-.2.32c.16.12.04.12,0,.12l-.2.32c0,.04-.08.12-.12.16.04,0,0,.12,0,.12l-.36.44c0,.08.04.12,0,.16l-.64,1.68a5.48,5.48,0,0,1-.28.96,5.052,5.052,0,0,0-.72,2c-.16.8-.36,1.56-.48,2.32a3.97,3.97,0,0,0,.36,2.28,2.018,2.018,0,0,0,.4.84,3.463,3.463,0,0,0,.4.96,2.85,2.85,0,0,0,2.04,1.88c.16,0,.32.16.48.2.04,0,.2.12.32.16a3.567,3.567,0,0,1,1.28.12h.16a2.307,2.307,0,0,1,.56-.12,10.289,10.289,0,0,1,1.6-.2s.04-.08.2-.08l1.76-.8a2.994,2.994,0,0,0,.88-.48c.24-.28.68-.28.88-.6.16-.28.6-.36.84-.56a12.95,12.95,0,0,1,2.08-1.32l.2-.24a.332.332,0,0,0-.28-.12s-.04,0-.04-.08Zm9.44-7.8h-.4v-.24c-.24-.08-.44.2-.68.28-.48.32-.92.68-1.44,1-.04.08,0,.28-.04.32a.431.431,0,0,0-.28.08c-.24.2-.56.32-.92.6-.4.24-.92.4-1.08.84h.2c.64-.24,1.08-.76,1.68-1.04l.24-.16.2-.32c.16.08.32,0,.44-.2a7.877,7.877,0,0,1,1.68-1.16C-157.46-4.24-157.46-4.24-157.3-4.52Zm-1.76,2.16a25.093,25.093,0,0,0-2.36,1.68l-.56.2a.843.843,0,0,0-.52.64,1.777,1.777,0,0,0,.92-.36,2.13,2.13,0,0,0,.92-.68c.64-.36,1.16-.84,1.8-1.2.04,0,.04-.08.04-.08C-158.98-2.24-159.06-2.32-159.06-2.36Zm10.28-8.24c.2-.24.44-.28.6-.56a3.206,3.206,0,0,1,.76-.52c.16-.04.24-.04.32-.28a1.082,1.082,0,0,0-.76.24,16.838,16.838,0,0,1-2.56,1.56.276.276,0,0,1-.12.2c-.04.08-.04.12,0,.16,0,.08.12.08.16.16a.148.148,0,0,1,.12-.08c.28-.12.52-.44.72-.44A.891.891,0,0,0-148.78-10.6Zm-8.36,7.12c.08-.04,0-.08,0-.2h-.04a2.447,2.447,0,0,1-.48.2,2.345,2.345,0,0,1-1.12.76c-.04,0-.08.24-.28.36.2,0,.24.04.24.12.28-.12.52-.28.88-.48A2.4,2.4,0,0,0-157.14-3.48Zm4.16-4.36a.454.454,0,0,0,.12-.32c.08,0,.08-.04,0-.16,0-.12-.04-.12-.12-.04a5.082,5.082,0,0,1-.68.56,1.594,1.594,0,0,0-.68.76h.28Zm1.44-1.32h-.12a1.121,1.121,0,0,0-.84.64c-.04.04-.04.08-.04.2.04.12.12.16.12.28.04.04.04.24.2.08.04-.04.16-.2.16-.2-.16-.2-.12-.28.04-.36l.36-.28c.12-.04.16-.08.16-.24C-151.38-9.04-151.5-9.12-151.54-9.16Zm-5.76,4.4.32-.36a1.123,1.123,0,0,0,.64-.56h-.28a2.621,2.621,0,0,0-1.08.92h.4v.04Zm2.28-1.88q-.06.12,0,.12h.2c.16-.12.44-.28.48-.52A.621.621,0,0,0-155.02-6.64Zm.96.64c-.08.04-.08.04,0,.12h.2a2.708,2.708,0,0,0,.48-.52C-153.74-6.52-153.86-6.32-154.06-6Zm7.68-6.52c-.28-.08-.48.16-.68.2a1.107,1.107,0,0,0-.04.36l.44-.24A.448.448,0,0,0-146.38-12.52Zm-7,6a.815.815,0,0,0,.8-.52C-153.06-7.04-153.18-6.8-153.38-6.52ZM-156.3-4.4h.16c.12,0,.24.08.28,0,.16-.12.16-.24.2-.48h-.04C-155.98-4.88-156.06-4.56-156.3-4.4Zm-.84-.24c-.04,0-.16,0-.16-.08v.2C-157.3-4.56-157.18-4.56-157.14-4.64Zm-7.04,6.48c.04-.04.04-.04.04-.08C-164.18,1.76-164.34,1.76-164.18,1.84Zm35-11.96c-.92.36-4,2.72-5,2.92.08-.44.52-.76.64-1.24a1.669,1.669,0,0,1,.52-.64.639.639,0,0,0,.12-.84l-.64-.68a1.647,1.647,0,0,0-1.96-.44c-.96.48-1.96.84-2.96,1.32a30.566,30.566,0,0,0-5.24,3.48h-.12c-.04-.04-.04-.2,0-.2l1.08-1.96a10.719,10.719,0,0,1,1-1.88c.16-.12.04-.4-.08-.6l-.64-.36a.881.881,0,0,0-1.28.36,12.679,12.679,0,0,1-.92,1.96c-.72,1.44-1.48,2.92-2.28,4.28-.68,1.28-1.32,2.4-1.96,3.56a2.551,2.551,0,0,0-.32.56,3.539,3.539,0,0,0,0,.92c.16.28.4.48.6.8.04.04.16.04.32.12.24.12.36.08.52-.2.16-.36.52-.56.72-1a22.119,22.119,0,0,1,1.88-2.36,5.935,5.935,0,0,1,1.36-1.48c.24-.24.52-.4.72-.64.24-.16.52-.32.72-.48a39.424,39.424,0,0,1,4.92-3.36c.36-.2.8-.32,1.2-.52.12-.04.32.08.32.2a2.155,2.155,0,0,0,.36,1.96c.04.2.16.32.2.56a.593.593,0,0,0,.6.32,2.079,2.079,0,0,0,1.92-.72c.32-.52,3.12-2.32,3.44-2.84a1.925,1.925,0,0,0,.32-.64C-129.1-9.92-129.1-10.08-129.18-10.12Zm16.96,1.56a.945.945,0,0,1-.36-.24.882.882,0,0,0-1.16-.32,4.752,4.752,0,0,1-1,.52,6.871,6.871,0,0,0-1.16.44c-1.24.52-2.6,1.2-3.92,1.76-.24.08-.44.08-.52.24a3.04,3.04,0,0,0-1.04.64c-.2.24-.2.24-.4,0-.68.36-1.28.68-2.04,1.04a17.78,17.78,0,0,1-2.04.76,10.739,10.739,0,0,1-2.56.48c-.4.24-.92,0-1.36-.12a.562.562,0,0,1-.32-.76,12.349,12.349,0,0,1,1.8-2.8.409.409,0,0,1,.36-.16c.64,0,1.28.12,1.8.12a2.878,2.878,0,0,0,1.16-.12,7.55,7.55,0,0,0,3.72-1.48l.56-.36c.8-.32,1.12-1.04,1.64-1.68a1.256,1.256,0,0,0,.08-1.56,3.409,3.409,0,0,0-.64-.88c-.04-.08-.28-.12-.44-.16-.16-.12-.28,0-.36-.12a1.157,1.157,0,0,0-1.44.12c-.36.16-.84.2-1.2.36a3.338,3.338,0,0,0-1.44.6,17.1,17.1,0,0,0-3.64,2.68A9.417,9.417,0,0,0-130.94-6l-.28.52a3.272,3.272,0,0,0,0,1.76,2.6,2.6,0,0,0,.84,1.36,2.237,2.237,0,0,0,1.04.6,2.863,2.863,0,0,0,2.16.2c.16-.2.32-.2.56-.28A11.153,11.153,0,0,0-122.7-3.2c.84-.4,1.72-.8,2.6-1.16a22.6,22.6,0,0,0,2.64-1.24c.04-.08.2-.08.32-.16.96-.4,1.96-.76,2.96-1.2a7.366,7.366,0,0,1,1.92-.68c.04,0,.24-.04.24-.12C-111.78-7.96-111.94-8.4-112.22-8.56Zm-15.2.48,1.08-1.04a15.568,15.568,0,0,1,2.6-1.76,5.659,5.659,0,0,1,2.52-.8c.24,0,.44-.04.48-.2.04-.12.2-.28.32-.16.16.16.32.24.2.44a.837.837,0,0,1-.12.56,2.469,2.469,0,0,1-1,1.2,8.452,8.452,0,0,1-2.8,1.44,11.69,11.69,0,0,1-1.36.52c-.32.08-.8.12-1.16.2v-.08a1.1,1.1,0,0,0-.52.08c-.12,0-.36.12-.48,0C-127.7-7.8-127.46-8.04-127.42-8.08Zm37.44-.24a1.183,1.183,0,0,1,.12-.16c-.28-.08-.6-.12-.92-.24v-.04a6.346,6.346,0,0,1,2.12-.52c.04-.08.12-.12.16-.16,0,0,0-.12.04-.16l-.08-.12a.481.481,0,0,1-.32.08,13.355,13.355,0,0,1-1.6.4c-2.2.68-4.32,1.6-6.52,2.44l-2.16.96a8.088,8.088,0,0,1-3,.64,2.86,2.86,0,0,1-1-.12c-.2-.32.24-.44.24-.8a4.355,4.355,0,0,1,.4-1,14.609,14.609,0,0,1,.72-1.64A7.786,7.786,0,0,1-101.5-10c.2-.12,0-.44.08-.64,0-.28-.52-.28-.28-.6-.12-.04-.24-.04-.28-.12-.36-.2-.8-.04-1.12-.52a.338.338,0,0,0-.24.08c-.12.04-.24.16-.44.24-.84.52-1.64,1.04-2.48,1.64-1.12.8-2.24,1.6-3.4,2.32a21.745,21.745,0,0,1-3.32,2.04,2.8,2.8,0,0,1-.96.36c-.2-.12-.2-.12.6-.92.24-.16.08-.56.4-.72a16.687,16.687,0,0,1,1.88-1.88,15.371,15.371,0,0,0,1.4-1.4,11.738,11.738,0,0,1,2.48-1.92,3.724,3.724,0,0,1,2.48-.4c.28.08.32-.24.12-.52a2.1,2.1,0,0,0-2.04-.76,9.767,9.767,0,0,0-2.76,1.12,21.236,21.236,0,0,0-2.76,2.16c-.84.84-1.8,1.72-2.64,2.72-.28.44-.68.88-.96,1.28a2.469,2.469,0,0,0-.28,1.24c.16,1.2.56,1.8,1.64,2,.44.04.88,0,1.32,0,.12,0,.28-.12.4-.16a24.415,24.415,0,0,0,2.16-1.36A13.463,13.463,0,0,0-108.7-6c.48-.32,1.04-.68,1.6-1l2.84-2c.04-.08.04-.08.16.04v.08a12.151,12.151,0,0,0-.48,1.6,2.789,2.789,0,0,0,.48,2.76c.04.2.12.32.16.48a1.593,1.593,0,0,0,1.12.84c.48.16,1,.44,1.56.04h.4c.68-.16,1.32-.24,1.96-.36a8.284,8.284,0,0,0,2.48-1l1.16-.4c.28-.12.32-.56.8-.52h.12A1.711,1.711,0,0,1-93.3-6.2h.04v-.04c-.44.12-.84.28-1.2.4,0,0-.08-.12-.16-.12,0-.04,0-.04.08-.16.32-.16,1.72-.72,2.52-1a1.874,1.874,0,0,1,1.16-.72A1.307,1.307,0,0,1-89.98-8.32Zm-8.48,3.68h-.12c-.72-.4-1.24.08-1.8.16-.08,0-.08-.04-.08-.04-.08,0-.08-.04-.08-.04v-.08c.16-.08.2-.16.24-.16.88-.2,1.64-.4,2.44-.56a3.238,3.238,0,0,1,.88,0C-97.38-4.92-98.06-4.92-98.46-4.64Zm5.88-3.48v-.04a2.822,2.822,0,0,1,1.8-.44h-.04A4.831,4.831,0,0,1-92.58-8.12Zm-1.68.76a1.186,1.186,0,0,1-1,.28.955.955,0,0,1,1-.36Zm0-.12a1.1,1.1,0,0,1,1-.36A.93.93,0,0,1-94.26-7.48Zm-10.84-2.64c.16-.32.24-.44.6-.4A.581.581,0,0,1-105.1-10.12Zm-1.24.84a.561.561,0,0,1,.6-.44C-105.9-9.4-106.06-9.28-106.34-9.28Zm1.84-1.28c.08-.28.28-.36.56-.36A.445.445,0,0,1-104.5-10.56Zm-3.08,2.08a.665.665,0,0,1,.56-.4C-107.06-8.6-107.22-8.44-107.58-8.48Zm14.44.64c0-.08.04-.28.08-.28h.48A.469.469,0,0,1-93.14-7.84ZM-106.9-8.96c.04-.28.28-.32.56-.32C-106.38-9-106.74-8.96-106.9-8.96Zm1.2-.76c.08-.28.28-.36.6-.4A.7.7,0,0,1-105.7-9.72Zm10.16,2.88h-.36c.12-.28.44-.16.56-.24C-95.34-6.92-95.38-6.84-95.54-6.84Zm-12.64-1.28a.786.786,0,0,1,.52-.36C-107.7-8.24-107.9-8.12-108.18-8.12Zm18.32-.76c-.12.16,0,.16.16.28h.04a.508.508,0,0,1,.16-.28C-89.62-8.88-89.66-8.96-89.86-8.88ZM-95.9-5.44h-.32c0-.12.12-.2.28-.2.04,0,.04.08.08.08A.175.175,0,0,1-95.9-5.44Zm-.8-1.04s-.04,0-.12-.12h.08c.04,0,.12,0,.12.12Zm-11.64-1.44c0-.04.08-.2.12-.2C-108.22-7.92-108.26-7.92-108.34-7.92Zm12.4,1.2-.12-.08h.12Zm-.48,1.4c-.04-.12,0-.12.04-.12C-96.38-5.36-96.42-5.36-96.42-5.32ZM-108.5-7.76v-.08h.08Zm19.12-1.2c-.08,0-.08,0-.08.08C-89.46-8.92-89.42-8.92-89.38-8.96Zm-2.36,1h.08v.04Zm-1.52,1.72a.14.14,0,0,1,.08-.04A.14.14,0,0,0-93.26-6.24Zm-10.56-4.8v-.04h.04ZM-81.66-15c.04.08,0,.08-.08.12l-.04-.04a.16.16,0,0,1,.16-.08.342.342,0,0,1,.12-.36,3.932,3.932,0,0,0,.48-.6c.12-.28.48-.36.68-.6a3.771,3.771,0,0,0,.4-.4,11.328,11.328,0,0,0,1.2-1.2c.52-.48.4-.36.48-1.08,0-.16-.08-.28-.08-.4s0-.24-.04-.28a2.588,2.588,0,0,1-.32-.36c-.04-.2-.16-.24-.36-.32a1.732,1.732,0,0,1-.2-.04c-.08,0-.12-.08-.24-.08s-.32,0-.36.2c-.08.04-.12.16-.24.24a5.68,5.68,0,0,1-.48.52,15.088,15.088,0,0,0-1.72,1.84,1.824,1.824,0,0,1-.48.48c-.2.2-.24.44-.44.6a8.394,8.394,0,0,0-.96,1.08c-.04.16-.24.28-.4.48-.16.12-.24.36-.36.48a.624.624,0,0,1-.52.28,5.341,5.341,0,0,0-.8,0,.833.833,0,0,1-.52-.12.182.182,0,0,0-.2,0c-.12.12-.28.12-.52.12h-1.72a.594.594,0,0,0-.36.08.594.594,0,0,1-.24.04,3.431,3.431,0,0,1-.88.08h-.2a.833.833,0,0,1-.52.12h-.96a1.151,1.151,0,0,0-.64.12.329.329,0,0,1-.36-.08.182.182,0,0,0-.2,0,.95.95,0,0,1-.48.12h-.76a2.053,2.053,0,0,1-.96.12c-.04,0-.12,0-.12.04a.16.16,0,0,0-.16.08.318.318,0,0,1-.36-.08.438.438,0,0,0-.32,0,1.827,1.827,0,0,0-.64.44.242.242,0,0,0-.12.24v.48a.782.782,0,0,0,.28.6c.08.12.12.16.24.16.2,0,.36-.04.48.08a.212.212,0,0,0,.32.04.953.953,0,0,1,.56-.12c.32,0,.6-.04.92-.04a.721.721,0,0,0,.4-.08.7.7,0,0,1,.24-.04c.36-.08.68.04.96-.12a.294.294,0,0,1,.24-.08h.96a.594.594,0,0,0,.24-.04,1.1,1.1,0,0,1,.52-.08c.32,0,.68-.04,1-.04.12,0,.24.04.32,0a1.522,1.522,0,0,1,.72-.12,3.927,3.927,0,0,0,1.32-.2h1.24c.04,0,.04.08.04.08v.04c-.16.2-.24.44-.4.68a2.794,2.794,0,0,0-.44.84c-.04.04,0,.08-.04.08.04,0,.12.08.16.12h-.04c-.08,0-.08-.04-.08-.12a.52.52,0,0,0-.32.48h.16a.148.148,0,0,0,.08-.12c0,.08.04.08.04.08-.04.04-.04.04-.12.04,0,.08,0,.12-.12.12a.31.31,0,0,0-.04-.12c-.08.08-.12.12-.12.2v.16c.04,0,.12,0,.04.08a.039.039,0,0,1-.04.04.759.759,0,0,1-.12.36c-.08.08-.08.08-.32.08a.039.039,0,0,0-.04.04c0,.12.12.2.04.32a.645.645,0,0,1-.12.36c-.04.04-.12.16-.24.28h-.04v.24c-.2.36-.36.64-.56,1l-.04.08s0,.04-.08.12c0,.04,0,.12-.04.12-.12.04-.24.12-.12.28A5.721,5.721,0,0,1-89.9-6c-.12.24-.12.48-.24.72-.08.12-.04.24-.04.4-.04,0-.04.08-.04.12a.645.645,0,0,0-.12.36.861.861,0,0,1-.08.44,1.017,1.017,0,0,0-.12.6,14.088,14.088,0,0,1,0,1.84c0,.16.2.36.2.6a.285.285,0,0,0,.12.24,1,1,0,0,0,.16.28,1.1,1.1,0,0,1,.28.36,2.119,2.119,0,0,0,.24.4,2.588,2.588,0,0,1,.36.32,2.493,2.493,0,0,1,.48.36c.2.16.36.36.68.36a.421.421,0,0,0,.52,0c.08-.08.12-.08.16-.08a2.641,2.641,0,0,0,.56-.04,2.443,2.443,0,0,1,.52-.12c.2-.08.44-.2.6-.12.08,0,.08,0,.08-.08A5.7,5.7,0,0,0-84.46.44a3.5,3.5,0,0,1,.4-.32c.32-.12.56-.32.92-.44.28-.12.48-.48.84-.6a4.564,4.564,0,0,1,.44-.44c.2-.04.24-.36.44-.36a4.527,4.527,0,0,0,.4-.52v-.24h-.16c0,.12-.08.12-.12.16,0,.08-.08.12-.2.12,0,.08,0,.12-.04.12h-.08c.08-.04.08-.12.12-.04a.189.189,0,0,1,.2-.2c0-.12.04-.16.16-.16,0-.08,0-.12.12-.2v.08c0-.12-.04-.2-.12-.2-.16-.04-.16-.08-.12-.08.12-.08.2-.12.32-.2.12-.04.16-.16.28-.24a4.717,4.717,0,0,0,.84-.72v-.12c0-.04-.04-.04-.12-.04-.12.04-.24.16-.4.12,0,.12-.08.16-.2.16v.08a5.681,5.681,0,0,0-.48.52,2.829,2.829,0,0,0-.72.48c-.16.24-.44.28-.64.52a.83.83,0,0,1-.4.24,1.38,1.38,0,0,1-.36.32,1.878,1.878,0,0,1-.36.24c-.12.04-.2.04-.2.16a.214.214,0,0,1-.16.12h-.48a.254.254,0,0,1-.2.24q0,.12-.12,0v-.04c.08-.08.08-.12.12-.12a.22.22,0,0,0,.2-.08l.04-.04c.08-.12.24-.12.36-.24s.32-.12.44-.24a.712.712,0,0,1,.28-.32c.24-.12.36-.28.56-.36.16-.12.36-.24.52-.36a1.02,1.02,0,0,0,.48-.32,4.955,4.955,0,0,1,.88-.72.338.338,0,0,1,.24-.08c0-.12.08-.12.2-.12,0-.16.12-.24.24-.36.04-.12.24-.16.36-.16v.04c.04-.12.04-.16.16-.16,0-.12.12-.24.2-.32a.441.441,0,0,0,.12-.36v-.12c-.2,0-.24.2-.36.24a1.511,1.511,0,0,0-.48.36,2.345,2.345,0,0,1-.72.56l-.36.36a1.389,1.389,0,0,0-.36.24,4.039,4.039,0,0,1-.64.52.128.128,0,0,0-.12.12c-.08.08-.12.2-.2.24-.12.04-.16.12-.28.12a2.974,2.974,0,0,0-.84.52h-.12a1.046,1.046,0,0,1-.32.12,1.694,1.694,0,0,1-.52.44,3.135,3.135,0,0,0-.6.4c-.12.12-.36.2-.48.32-.12.04-.24,0-.28.04a1.878,1.878,0,0,1-.36.24s-.08.08-.12.08a2.946,2.946,0,0,0-.56.16.676.676,0,0,1-.4.12A1.522,1.522,0,0,1-88.1-.4h-.28a1.963,1.963,0,0,1-.44-.04s-.12-.08-.12-.12V-.8a.219.219,0,0,0-.16-.24.128.128,0,0,1-.12-.12c0-.2-.08-.32.04-.48v-.08c.08-.04,0-.12,0-.12A.24.24,0,0,1-89.22-2c0-.08.04-.12.04-.2.08-.12-.04-.16,0-.28a.538.538,0,0,0,.08-.32.777.777,0,0,1,.12-.52c.04-.04.04-.16.04-.24,0-.16-.04-.36.08-.48a1.3,1.3,0,0,0,.16-.52,2.979,2.979,0,0,0,.44-.96c0-.08.04-.12.04-.16.08-.32.44-.44.44-.8.12-.24.24-.52.4-.84.04-.04.04-.16.12-.24a4.057,4.057,0,0,0,.36-.52,4.56,4.56,0,0,1,.4-.76c.08,0,.08-.08.08-.12a.61.61,0,0,1,.24-.44,1.1,1.1,0,0,1,.28-.36c.32-.64.8-1.24,1.16-1.84.08-.24.32-.36.4-.6.12-.24.28-.36.4-.6a.782.782,0,0,1,.6-.36,1.679,1.679,0,0,1,.56-.12h1a.594.594,0,0,0,.24-.04,1.006,1.006,0,0,1,.6-.08,9.053,9.053,0,0,1,1-.04c.12,0,.2.04.24,0,.24-.2.56-.12.76-.12h1.16a.338.338,0,0,0,.24-.08.777.777,0,0,1,.52-.12h2.2a.953.953,0,0,0,.56-.12h.24c.52,0,1.04,0,1.64-.04h1.28a.594.594,0,0,0,.24-.04.431.431,0,0,1,.32-.08h7.72c.16,0,.24-.12.24-.28v-.56a1.307,1.307,0,0,0-.36-.64.27.27,0,0,1-.12-.24c-.08-.12-.12-.2-.2-.2a.8.8,0,0,0-.52.08,1.048,1.048,0,0,1-.6.04c-.2,0-.44.08-.6,0-.2-.12-.32.12-.48.08a.16.16,0,0,0-.16-.08.22.22,0,0,1-.08.2l-.04-.08c.04-.04.04-.04.12-.04-.12-.24-.2-.24-.32,0-.04,0-.04.04-.12.12a1.093,1.093,0,0,1-.64-.08.182.182,0,0,0-.2,0,1.02,1.02,0,0,1-.84,0c-.04-.04-.04-.04-.12,0-.04,0-.12.08-.16.08H-69.1c-.12,0-.16-.12-.28-.08-.12,0-.2.08-.32.08a1.855,1.855,0,0,1-.84.16H-72.9a.481.481,0,0,0-.32.08,1.107,1.107,0,0,1-.36.04,22.871,22.871,0,0,0-2.32.08h-.28a.623.623,0,0,1-.48.12h-1.96a.888.888,0,0,0-.36.04.3.3,0,0,1-.36,0,.676.676,0,0,1-.4.12Zm-.4.48c0-.04,0-.12.04-.12a.31.31,0,0,1,.12-.04h1.32a.721.721,0,0,0,.4-.08c.12-.12.24-.04.32-.04a10.991,10.991,0,0,0,1.6-.08c.24,0,.48.08.64-.04a.338.338,0,0,1,.24-.08h1.24a.837.837,0,0,0,.56-.12c.04,0,.12.08.16.08a.4.4,0,0,0,.12.04c0-.04.08-.12.08-.12.04-.04.16-.04.24-.04h2.08a.493.493,0,0,0,.28-.08.364.364,0,0,1,.48,0c.08.08.12.08.2,0,.04-.04.16-.04.28-.04a12.338,12.338,0,0,1,1.72,0h3.52c.08,0,.08,0,.12.04-.04,0-.04.08-.12.08h-2.92a4.841,4.841,0,0,0-.76.04c-.2.12-.32,0-.44-.04h-.24a.847.847,0,0,1-.28.12c-.04,0-.16-.08-.24-.08-.12.08-.24.12-.36,0h-.04a1.876,1.876,0,0,1-1.04.12h-.92a.957.957,0,0,0-.6.12.508.508,0,0,1-.48,0c-.12-.04-.2-.12-.32,0a.175.175,0,0,0-.12-.04c-.04,0-.04-.08-.12-.08-.04,0-.04.08-.04.12h-.2a5.662,5.662,0,0,1-1.16.08c-.24,0-.56-.12-.72.12h-.96c-.32.04-.68-.08-.96.12a.148.148,0,0,0-.12-.08c-.04,0-.12-.04-.12,0a1.522,1.522,0,0,1-.72.12h-.52a1.489,1.489,0,0,0-.72.08c0,.04-.08,0-.12,0-.12-.12-.28-.08-.48-.08,0,.08,0,.08-.04.12l-.08-.04A.22.22,0,0,1-82.06-14.52Zm-3.64.2c.12,0,.24,0,.24.04-.08,0-.08.08-.12.12,0,0-.08.08-.12.08-.08,0-.12.04-.24.04h-1.4a.658.658,0,0,0-.4.08c0,.04-.04,0-.04-.08,0-.04,0-.12.04-.12.2,0,.36-.04.52-.04h.72c.12,0,.2-.08.32-.08.04-.04.12-.04.24-.04C-85.9-14.2-85.78-14.2-85.7-14.32ZM-86.9-.08a1.366,1.366,0,0,1,.6.08.342.342,0,0,1,.28,0,.431.431,0,0,0,.32.08.039.039,0,0,1,.04.04L-85.7.2a2.794,2.794,0,0,0-.48.12q-.12.06-.12,0A.645.645,0,0,0-86.66.2c-.24.04-.36-.08-.56-.12a.31.31,0,0,1-.04-.12l.04-.04ZM-74.1-14.4a2.338,2.338,0,0,0,.76.08l.08.04h-.08c-.04.08-.16.08-.24.08h-1.16a.638.638,0,0,0-.32.12s-.04,0-.04-.12c0-.08,0-.08.04-.12h.96Zm2.44,0c0,.12-.04.12-.16.12-.08-.04-.2-.12-.24-.04a.551.551,0,0,1-.6.04c0-.04,0-.04.04-.04.2.04.36-.2.56-.2h.36C-71.66-14.44-71.66-14.44-71.66-14.4Zm.8,0h-.2a.039.039,0,0,1-.04-.04l.04-.08h.52a.078.078,0,0,1,.08.08s0,.04-.08.04Zm-17.84.48h-.12a.039.039,0,0,1-.04-.04l.04-.08h.48c.08,0,.12.08.2.08a.175.175,0,0,0-.12.04Zm14.96-.6s-.12,0-.16-.04h-.08a.078.078,0,0,1,.08-.08c.12,0,.24-.04.32,0,.08,0,.12,0,.12.08a.039.039,0,0,0-.04.04Zm3.08-.16c.08,0-.04-.08,0-.12h.44a.175.175,0,0,0,.12.04.148.148,0,0,0-.12.08h-.44Zm3.04.16c.08,0,.12.08.2.08-.08.04-.08.04-.12.04h-.32c-.04,0-.04,0-.12-.04,0,0,.08-.08.12-.08Zm-8.56.36v.08a.3.3,0,0,1-.16.04.533.533,0,0,1-.2-.12c.08,0,.12-.04.2-.04C-76.3-14.2-76.26-14.16-76.18-14.16Zm-3.68.24c-.08,0-.08-.04-.12-.04.04,0,.04-.08.12-.08h.16a.078.078,0,0,1,.08.08s0,.04-.08.04Zm3.8-.52a.381.381,0,0,1,.28-.08c.08,0,.08.08.12.08l-.04.04a.243.243,0,0,1-.32,0A.039.039,0,0,0-76.06-14.44Zm-13.24.52h-.04a.361.361,0,0,1-.2-.04c.08,0,.08-.08.12-.08h.2l.04.08C-89.18-13.92-89.22-13.92-89.3-13.92Zm11.92-.16c0,.04-.04,0-.04,0-.08-.08,0-.08.04-.08.08-.04.12,0,.12.08Zm.8-.32c-.08,0-.08-.04-.08-.04.08-.08.12-.08.12-.08a.078.078,0,0,1,.08.08v.04Zm7.36-.36c0-.04.08-.04.12-.04.08,0,.08,0,.08.04a.078.078,0,0,1-.08.08h-.04Zm3.24-.4a.078.078,0,0,0-.08-.08.31.31,0,0,1,.12-.04.175.175,0,0,1,.12.04A.16.16,0,0,1-65.98-15.16ZM-79.1-13.92c-.04,0-.04-.04-.12-.04.08,0,.08-.08.12-.08s.04.08.12.08C-79.06-13.92-79.06-13.92-79.1-13.92Zm-.72-.4v.04h-.04Zm14.64-.92c-.04,0-.04.08-.04.08-.08-.08-.08-.08,0-.12A.039.039,0,0,0-65.18-15.24Zm-.4,0s0-.04.08-.04v.12A.078.078,0,0,1-65.58-15.24Zm-2.72.48a.039.039,0,0,0,.04-.04c.08,0,.08.04.08.04a.078.078,0,0,1-.08.08S-68.26-14.76-68.3-14.76Zm-1.32,0-.08.08c-.04-.08-.04-.08,0-.12C-69.62-14.8-69.62-14.76-69.62-14.76Zm-.2.36a.039.039,0,0,1-.04-.04s0-.08.04-.08v.12Zm-1.28-.28v-.12a.039.039,0,0,1,.04.04Zm-3.84.04h.08v.08h-.08Zm-.88.56c-.08,0-.08,0-.08-.08A.078.078,0,0,1-75.82-14.08Zm-1.08-.36a.039.039,0,0,0-.04.04c-.08-.04-.08-.04,0-.04Zm-.04.36a.078.078,0,0,1-.08-.08c.08,0,.08,0,.12.08Zm-.96,0a.078.078,0,0,1-.08-.08h.08l.04.08Zm-.84.12s0-.08.04-.08a.078.078,0,0,0,.08.08c-.08,0-.08.04-.08.04A.039.039,0,0,1-78.74-13.96Zm-.4-.32h-.08l.08-.04Zm.64,8.16c.12,0,.12-.04.16-.12a.24.24,0,0,0-.04-.16l-.08.04c-.04,0-.04.08-.12.08v.04C-78.58-6.16-78.5-6.16-78.5-6.12Zm-1.08,1.44v.12h.12C-79.46-4.68-79.5-4.68-79.58-4.68Zm0,.16h-.16v-.04c.04.04.04.16.12.12a.4.4,0,0,0,.04-.12Zm-1.44,1.84v.2c.08,0,.12,0,.12-.08,0-.04-.04-.04-.12-.04Zm2.08-3.12c.08,0,.08,0,.12-.08l-.04-.04C-78.94-5.88-78.94-5.88-78.94-5.8Zm-.16.16c-.12,0-.16.04-.16.16.12-.04.16-.12.16-.16.12,0,.16-.04.16-.16C-79.06-5.8-79.1-5.76-79.1-5.64Zm-8.68-4.48v-.12c-.08,0-.12,0-.12.08C-87.9-10.12-87.86-10.12-87.78-10.12Zm-.84,1.44c0-.04,0-.04-.08-.12l-.04.08C-88.7-8.68-88.7-8.68-88.62-8.68Zm-.6,1.32a.148.148,0,0,0-.08-.12h-.04A.128.128,0,0,0-89.22-7.36ZM-58.54-8.8c-.16-.4.24-.76.04-.84a4.668,4.668,0,0,0-1.4.56,13.486,13.486,0,0,1-1.28.76,6.436,6.436,0,0,0-1.6,1.04,1.6,1.6,0,0,1-.68.36c-.84.4-1.52.92-2.28,1.32A29.576,29.576,0,0,1-68.58-4c-.48.36-1.04.48-1.44.76a8.516,8.516,0,0,1-1.48.56c-.52.2-1.04.36-1.52.52a1.853,1.853,0,0,1-1.48-.16,2.63,2.63,0,0,1,.08-1.48,3.032,3.032,0,0,0,.48-1.04,11.191,11.191,0,0,1,1.6-2.84c.32-.56.72-1.04,1.12-1.72a1.078,1.078,0,0,1,1.2-.68h.12c.16,0,.28-.32.16-.52a9.733,9.733,0,0,0-1-.8,1.106,1.106,0,0,0-1.28.24c-.32.4-.8.8-1.12,1.2a14.548,14.548,0,0,0-2.44,4.08c-.16.6-.32,1.2-.44,1.84a4.1,4.1,0,0,0,.36,2.08,6.836,6.836,0,0,0,.84,1.4.764.764,0,0,0,.32.12,5.318,5.318,0,0,0,3.16-.08c.52-.2,1-.4,1.52-.56a27.085,27.085,0,0,0,3.04-1.6,16.072,16.072,0,0,1,1.64-.96A6.342,6.342,0,0,1-63.5-4.68,7.787,7.787,0,0,1-61.94-5.8v-.16h-.4c.16-.32.32-.44.6-.44.08-.12.28-.12.44-.2.12-.32.32-.36.64-.48a.481.481,0,0,1,.32-.08.479.479,0,0,1,.48-.24v.24A6.119,6.119,0,0,0-58.54-8.8Zm-10.64-6.32c.24.08.48.08.6.12h.36a2.139,2.139,0,0,0,.96-.44c.16-.24.04-.48.04-.68-.04-.36-.36-.56-.56-.84-.08,0-.16-.12-.24-.12a1.923,1.923,0,0,0-1.32.4A.874.874,0,0,0-69.18-15.12Zm9,7.44c-1.12.56-2.2,1.28-3.28,1.88a2.172,2.172,0,0,1-1.08.36c0-.08.24-.24.4-.32.84-.52,1.68-.96,2.52-1.48a7.138,7.138,0,0,1,1.72-.72C-59.98-7.88-60.1-7.68-60.18-7.68Zm31.16-2.08a.106.106,0,0,0-.12-.12c-.36.04-.8-.04-1.04.12-.76.4-1.56.56-2.28.96-.92.36-1.68.6-2.56,1-.88.24-1.84.72-2.8,1-.72.24-1.32.56-2,.84A24.28,24.28,0,0,0-42.18-5a14.476,14.476,0,0,1-3.08.64c-.48.08-.76-.04-.68-.48a1.207,1.207,0,0,1,.2-.76c.16-.68.36-1.48.48-2.2.24-1,.48-1.96.68-2.92a1.127,1.127,0,0,0,0-.52c-.2-.32-.52-.64-.72-.92a.923.923,0,0,0-.28-.2,1.92,1.92,0,0,0-1.12.2,6.2,6.2,0,0,0-1.16.56,4.522,4.522,0,0,1-1.16.6,11.017,11.017,0,0,0-1.76,1.12,9.748,9.748,0,0,0-1.64.96,12.731,12.731,0,0,0-2.52,1.84c-.76.6-1.48,1.08-2.28,1.64a.507.507,0,0,1-.24.04,1.4,1.4,0,0,1,.24-.56c.36-.8.88-1.64,1.36-2.48a1.317,1.317,0,0,1,.28-.52,2.414,2.414,0,0,1,.64-1.32c.04-.08.16-.16,0-.32a2.916,2.916,0,0,0-1.08-.88c-.36-.12-.64,0-.84.44a15.67,15.67,0,0,1-2,4.4,1.078,1.078,0,0,0-.32.52c-.2.48-.44.84-.64,1.32a6.742,6.742,0,0,0-.48,1.12c-.36.68,0,1.28.32,1.84a.693.693,0,0,0,.6.12c.16-.16.24-.32.4-.48a3.861,3.861,0,0,0,1.52-1.36,7.391,7.391,0,0,1,.56-.56,20.408,20.408,0,0,1,3.48-2.92c.24-.36.76-.36,1-.6.64-.48,1.32-.88,1.96-1.32.48-.24.8-.52,1.32-.76.84-.32,1.76-.68,2.72-1,.2-.2.24-.16.24.12a2.749,2.749,0,0,1-.12.88,5.279,5.279,0,0,1-.4,1.2,10.55,10.55,0,0,0-.44,3.88,1.317,1.317,0,0,0,.24.76,6.148,6.148,0,0,0,.68.76c.2.12.52.28.68.4a3.621,3.621,0,0,0,1.96-.12,7.528,7.528,0,0,0,1.76-.68c1.04-.36,2.32-.84,3.48-1.28l4.32-1.76a1.132,1.132,0,0,1,.24-.12c-.08-.28.04-.36.32-.36a1.316,1.316,0,0,0,.8-.24c.84-.28,1.6-.52,2.4-.84C-28.62-8.76-29.06-9.2-29.02-9.76Zm-.92,1.04a5.681,5.681,0,0,1-1.8.76c-.2.16-.6.04-.8.36-.12.04-.2.04-.24.12-1,.16-1.92.72-2.96,1-.28.04-.52.2-.8.04,0-.12.16-.2.28-.24.56-.24,1.2-.4,1.84-.64a2.035,2.035,0,0,0,.56-.16.772.772,0,0,1,.4-.12c.4,0,.24-.36.4-.36.52-.16.92-.48,1.44-.36.12.08.28-.08.32-.12a4.069,4.069,0,0,1,1.32-.36c0-.12.04,0,.12.04C-29.86-8.76-29.86-8.72-29.94-8.72Zm-8.2,2.88v-.08a1.176,1.176,0,0,1,.96-.24A1.1,1.1,0,0,1-38.14-5.84Zm-.68.24c.12-.2.16-.24.28-.24s.24.04.32.04C-38.34-5.52-38.58-5.52-38.82-5.6Zm1.64-.56a.343.343,0,0,1,.32-.28h.28C-36.66-6.12-36.9-6.16-37.18-6.16Zm-5.44,2c-.12,0-.12-.12-.16-.12l.04-.08h.44A.281.281,0,0,1-42.62-4.16Zm.64-.24h-.28c.08-.24.44-.12.52-.12C-41.74-4.4-41.82-4.4-41.98-4.4ZM-22.74-.84c-.04-.08-.04-.08-.08-.08v-.12c0-.16,0-.28.16-.32a.7.7,0,0,0,.48-.68c.2-.04.24-.28.36-.48.2-.36.48-.72.72-1.08l-.04-.12c0-.08.04-.08.04-.08a1.134,1.134,0,0,0,.44-.32v.08h.12c0,.04,0,.2.04.04a.039.039,0,0,0-.04-.04v-.08h-.12c0-.16-.12-.32.16-.56a6.507,6.507,0,0,1,.92-.44v.24c.24.04.28.28.52.12.24-.12.56-.24.84-.4l-.08-.12c0-.16-.04-.16-.04-.16-.16,0-.2,0-.28.16-.28.04-.56.28-.96.16,0-.04.12-.12.2-.16a9.12,9.12,0,0,1,1.2-.68,3.228,3.228,0,0,1,1.04-.36c0,.32-.24.36-.44.44l-.4.2a.078.078,0,0,0-.08.08l.08.08c.24-.08.48,0,.76-.08a.736.736,0,0,0,.48-.72h-.4c.08-.2.24-.2.4-.2v.2c.24-.08.4,0,.64-.08a.321.321,0,0,1,.36-.04.261.261,0,0,0,.32-.08.752.752,0,0,0,.16-.4,1.344,1.344,0,0,1-1,.2,1.011,1.011,0,0,1,1-.44v-.08a2.955,2.955,0,0,1,1.64-.52.472.472,0,0,0-.2.2l-.16.16a6.194,6.194,0,0,0,.84-.04c.04,0,.04-.2.04-.32h-.52c.08-.04.08-.12.16-.2a3,3,0,0,1,1.04-.2c-.16.08-.2.2-.24.2-.16.08-.32.08-.32.2a.7.7,0,0,0,.84.08.431.431,0,0,1,.32-.08,2.953,2.953,0,0,1,2.32-.2h.16c.16,0,.32-.2.32-.44,0-.32-.4-.4-.52-.52-.44-.52-.92-.92-1.6-.52a8.084,8.084,0,0,0-2.2.56,11.244,11.244,0,0,0-2.6.92c-.08.08-.08.16-.12.2a.912.912,0,0,0,.8-.2,2.785,2.785,0,0,1,1-.2c0,.08,0,.12-.08.12-.76.36-1.56.8-2.28,1.08-.6.24-1.24.52-1.8.8a13.4,13.4,0,0,1-1.52.72c0,.16-.08.16-.08,0-.16-.04,0-.08,0-.16.08-.2.36-.2.44-.52-.12-.04-.12-.16,0-.2v.2c.2-.04.4,0,.52-.04a13.7,13.7,0,0,0,1.68-.92v-.04a1.95,1.95,0,0,0-.96.32c-.48.16-.72.48-1.24.48a2.092,2.092,0,0,1,.4-.92c.12-.04.16-.2.16-.4a5.686,5.686,0,0,1,.8-1.64,8.741,8.741,0,0,0,.72-1.32,37.9,37.9,0,0,0,1.48-3.72c0-.08-.04-.2-.04-.28-.32-.56-.8-.68-1.16-.16a3.874,3.874,0,0,0-.36.28,13.8,13.8,0,0,0-1.44,1.28c-.16.16-.28.16-.36.04a3.329,3.329,0,0,0-1.96-.8.754.754,0,0,0-.48.08c-.68.2-1.44.68-2.12.88a35.18,35.18,0,0,0-3.48,2.12,15,15,0,0,0-3.24,2.92,4.281,4.281,0,0,0-.92,1.36,2.3,2.3,0,0,0,0,1.92,1.483,1.483,0,0,0,1.52,1.04,2.277,2.277,0,0,0,1-.16,4.662,4.662,0,0,1,1-.52A9.711,9.711,0,0,0-25.78-5.8c.56-.64,1.36-1.16,2-1.84l1.64-1.44c.52-.32.92-.76,1.44-1.12a14.551,14.551,0,0,0,2-1.84.9.9,0,0,1,.2-.2c.08-.08.16-.08.2-.12h.08c0,.04.04.12.04.16-.32.68-.68,1.36-1,2.12a8.114,8.114,0,0,0-.8,1.92h.16v.2c-.04,0-.04.08-.04.16a.248.248,0,0,1-.08-.16.361.361,0,0,1-.04-.2,1.617,1.617,0,0,0-.68,1.2.478.478,0,0,0-.16.32,1.628,1.628,0,0,0-.52.76,3.151,3.151,0,0,1-.92,1.12c-.04.08-.04.28-.16.32.16.08.24.16.12.32-.12.08-.12.12-.28.28a3.437,3.437,0,0,1-1.28.6l-.28.36A11.533,11.533,0,0,0-26.66-1.2a7.529,7.529,0,0,1-.92.64.625.625,0,0,1,.24-.48c.32-.28.68-.52,1.12-.84.16-.16.44-.2.48-.48a.688.688,0,0,0-.32.04A38.317,38.317,0,0,0-29.86.6c-.44.36-.8.76-1.24,1.12a29.381,29.381,0,0,0-1.88,2.4,3.125,3.125,0,0,0-.68,1.92,3.655,3.655,0,0,0,.72,2.64c.6.8,1.16.96,1.96.48a.612.612,0,0,0,.28-.2c.36-.12.56-.48.88-.68a13.229,13.229,0,0,0,1.28-1.32,1.023,1.023,0,0,0,.4-.76c.28,0,.4-.16.56-.4.32-.4.56-.64.88-1.08a4.808,4.808,0,0,0,1.12-1.48c.32-.52.64-1.04.96-1.64.08-.12.36.12.36-.16a.509.509,0,0,1,.28-.48c-.12-.24.12-.32.36-.32l.04-.2a.362.362,0,0,1,.08-.48c.44-.12.44-.48.44-.76.08-.04.12-.12.24-.12C-22.82-.84-22.82-.8-22.74-.84ZM-24.1.12a8.786,8.786,0,0,1-1.12,1.76c-.04.04-.24.04-.32.2V1.72a.543.543,0,0,0,.28-.44c.16,0,.16-.08.2-.24.12-.08.12-.24.12-.4-.16.08-.12.28-.16.4-.12,0-.16.04-.28.24-.16.08-.2.2-.16.44-.32.04-.36.2-.36.56l.36-.2-.08.48A13.675,13.675,0,0,1-27.26,5c-.32.4-.64.8-.92,1.2A4.4,4.4,0,0,0-29.3,7.36c-.2.16-.32.48-.72.48-.04-.2,0-.36.16-.4A15.5,15.5,0,0,0-28.82,6.2c.16-.08.16-.28.24-.4.04-.08.2-.08.24-.12.32-.44.76-.6.76-1.12A2.752,2.752,0,0,0-28.66,5.8a6.148,6.148,0,0,0-.68.76,11.147,11.147,0,0,1-1.52,1.2,2.111,2.111,0,0,1-.88.32.663.663,0,0,1-.68-.12.66.66,0,0,1-.2-.6.4.4,0,0,1,.04-.16A6.286,6.286,0,0,1-31.3,4.68l.32-.4a2.32,2.32,0,0,1,.84-1.04,5.449,5.449,0,0,1,.68-.68c.52-.48.92-1,1.56-1.52.84-.64,1.68-1.28,2.52-1.88.28-.2.44-.36.64-.48a3.274,3.274,0,0,0,1.24-1h.16c.04,0,.04.16.04.16-.04.2-.12.32-.2.6-.28.04-.36.24-.44.52a.55.55,0,0,0-.16.48c.24-.12.24-.24.24-.48a.434.434,0,0,0,.36-.16v.4C-23.7-.52-23.86-.16-24.1.12Zm3.32-11.72c-1.08.92-2.2,1.88-3.36,2.8L-26.7-6.92l-.48.28c-.52.24-.96.64-1.48.84a2.081,2.081,0,0,1-1.16.28,2.644,2.644,0,0,1,.52-1,15,15,0,0,1,3-2.76c0-.12,0-.12.08-.12a3.245,3.245,0,0,1,1.44-1.2c.56-.28,1.08-.8,1.68-1.08.52-.2.96-.68,1.52-.84a1.38,1.38,0,0,0,.36-.32l.28-.2c.16-.12.44-.08.48,0,0,.16.08.28,0,.44a4.589,4.589,0,0,1-.32.56h.32A.549.549,0,0,1-20.78-11.6Zm-2.64,7.96c.12-.08.32-.16.36-.4h-.04A10.142,10.142,0,0,0-25.06-3v.2c.12,0,.28-.16.52-.2a.556.556,0,0,1,.6-.24A.662.662,0,0,1-23.42-3.64ZM-28.98.44a.122.122,0,0,1,.16,0,4.145,4.145,0,0,1-1.36,1.4c0-.12,0-.28.04-.28A6.083,6.083,0,0,1-28.98.44Zm2.24,3.08a1.586,1.586,0,0,0-.84,1.04,1.973,1.973,0,0,0,.88-1,.777.777,0,0,0,.32-.64A.54.54,0,0,0-26.74,3.52ZM-14.7-7.16c-.16.04-.36,0-.56.04v.16c.16.04.2.16.36.16.2.08.32,0,.56-.12.12-.16.28-.2.28-.36A1.22,1.22,0,0,0-14.7-7.16ZM-28.58.08a1.252,1.252,0,0,1,1-.64c-.24.4-.48.76-1,.76Zm16.16-8.24a.078.078,0,0,1,.08-.08,2.684,2.684,0,0,1,1.32-.32A1.9,1.9,0,0,1-12.42-8.16ZM-30.82,8.4a.86.86,0,0,1,.76-.56C-30.18,8.12-30.34,8.48-30.82,8.4ZM-24.94.64a.555.555,0,0,0,.48-.56A.506.506,0,0,0-24.94.64Zm8.4-8.2a1.98,1.98,0,0,0-.52.16c-.12,0-.32.12-.16.24A.788.788,0,0,0-16.54-7.56Zm-6.88,6.32v-.32a.933.933,0,0,1,.36-.28C-23.06-1.52-23.1-1.32-23.42-1.24ZM-24.46.08a.823.823,0,0,0,.36-.64A.589.589,0,0,0-24.46.08ZM-22.5-2.6c-.08.12-.16.4-.32.4a.626.626,0,0,1,.16-.52l.08-.08A.22.22,0,0,1-22.5-2.6Zm9.04-5.8h-.36c.08-.2.36-.16.56-.16C-13.26-8.44-13.34-8.4-13.46-8.4Zm-2.8,1.68c-.08.28-.28.2-.48.2.08-.16.2-.2.4-.2Zm-7,3.76a1.09,1.09,0,0,0,.48-.24c0-.04,0,0,.04,0-.08.2-.2.24-.32.4l-.04-.08C-23.26-2.88-23.26-2.96-23.26-2.96Zm.2,1.12c0-.2-.04-.32.24-.36C-22.82-2.04-22.82-1.88-23.06-1.84Zm-3.08,4.56a.4.4,0,0,0,.24-.44C-26.14,2.36-26.14,2.56-26.14,2.72ZM-14.26-8.16c.04-.24.28-.16.44-.24C-13.94-8.08-14.06-8.16-14.26-8.16Zm1.48-.44h-.44a.311.311,0,0,1,.4-.12.907.907,0,0,1,.16.04S-12.66-8.6-12.78-8.6Zm1.52-.6c.04,0,.08.08.16.08-.04.04-.04.04-.08.04h-.6A.777.777,0,0,1-11.26-9.2Zm-11.4,4.92c-.16,0-.32-.04-.4.16C-22.82-4.04-22.74-4.04-22.66-4.28ZM13.46-.84c-.04-.08-.04-.08-.08-.08v-.12c0-.16,0-.28.16-.32a.7.7,0,0,0,.48-.68c.2-.04.24-.28.36-.48.2-.36.48-.72.72-1.08l-.04-.12c0-.08.04-.08.04-.08a1.134,1.134,0,0,0,.44-.32v.08h.12c0,.04,0,.2.04.04a.039.039,0,0,0-.04-.04v-.08h-.12c0-.16-.12-.32.16-.56a6.507,6.507,0,0,1,.92-.44v.24c.24.04.28.28.52.12.24-.12.56-.24.84-.4l-.08-.12c0-.16-.04-.16-.04-.16-.16,0-.2,0-.28.16-.28.04-.56.28-.96.16,0-.04.12-.12.2-.16a9.12,9.12,0,0,1,1.2-.68,3.228,3.228,0,0,1,1.04-.36c0,.32-.24.36-.44.44l-.4.2a.078.078,0,0,0-.08.08l.08.08c.24-.08.48,0,.76-.08a.736.736,0,0,0,.48-.72h-.4c.08-.2.24-.2.4-.2v.2c.24-.08.4,0,.64-.08a.321.321,0,0,1,.36-.04.261.261,0,0,0,.32-.08.752.752,0,0,0,.16-.4,1.344,1.344,0,0,1-1,.2,1.011,1.011,0,0,1,1-.44v-.08a2.955,2.955,0,0,1,1.64-.52.472.472,0,0,0-.2.2l-.16.16a6.194,6.194,0,0,0,.84-.04c.04,0,.04-.2.04-.32h-.52c.08-.04.08-.12.16-.2a3,3,0,0,1,1.04-.2c-.16.08-.2.2-.24.2-.16.08-.32.08-.32.2a.7.7,0,0,0,.84.08.431.431,0,0,1,.32-.08,2.953,2.953,0,0,1,2.32-.2h.16c.16,0,.32-.2.32-.44,0-.32-.4-.4-.52-.52-.44-.52-.92-.92-1.6-.52a8.084,8.084,0,0,0-2.2.56,11.244,11.244,0,0,0-2.6.92c-.08.08-.08.16-.12.2a.912.912,0,0,0,.8-.2,2.785,2.785,0,0,1,1-.2c0,.08,0,.12-.08.12-.76.36-1.56.8-2.28,1.08-.6.24-1.24.52-1.8.8a13.4,13.4,0,0,1-1.52.72c0,.16-.08.16-.08,0-.16-.04,0-.08,0-.16.08-.2.36-.2.44-.52-.12-.04-.12-.16,0-.2v.2c.2-.04.4,0,.52-.04a13.7,13.7,0,0,0,1.68-.92v-.04a1.95,1.95,0,0,0-.96.32c-.48.16-.72.48-1.24.48a2.092,2.092,0,0,1,.4-.92c.12-.04.16-.2.16-.4a5.686,5.686,0,0,1,.8-1.64,8.741,8.741,0,0,0,.72-1.32,37.9,37.9,0,0,0,1.48-3.72c0-.08-.04-.2-.04-.28-.32-.56-.8-.68-1.16-.16a3.874,3.874,0,0,0-.36.28,13.8,13.8,0,0,0-1.44,1.28c-.16.16-.28.16-.36.04a3.329,3.329,0,0,0-1.96-.8.754.754,0,0,0-.48.08c-.68.2-1.44.68-2.12.88a35.18,35.18,0,0,0-3.48,2.12A15,15,0,0,0,5.54-7.96,4.281,4.281,0,0,0,4.62-6.6a2.3,2.3,0,0,0,0,1.92A1.483,1.483,0,0,0,6.14-3.64a2.277,2.277,0,0,0,1-.16,4.662,4.662,0,0,1,1-.52A9.711,9.711,0,0,0,10.42-5.8c.56-.64,1.36-1.16,2-1.84l1.64-1.44c.52-.32.92-.76,1.44-1.12a14.551,14.551,0,0,0,2-1.84.9.9,0,0,1,.2-.2c.08-.08.16-.08.2-.12h.08c0,.04.04.12.04.16-.32.68-.68,1.36-1,2.12a8.114,8.114,0,0,0-.8,1.92h.16v.2c-.04,0-.04.08-.04.16a.248.248,0,0,1-.08-.16.361.361,0,0,1-.04-.2,1.617,1.617,0,0,0-.68,1.2.478.478,0,0,0-.16.32,1.628,1.628,0,0,0-.52.76,3.151,3.151,0,0,1-.92,1.12c-.04.08-.04.28-.16.32.16.08.24.16.12.32-.12.08-.12.12-.28.28a3.437,3.437,0,0,1-1.28.6l-.28.36A11.533,11.533,0,0,0,9.54-1.2a7.529,7.529,0,0,1-.92.64.625.625,0,0,1,.24-.48c.32-.28.68-.52,1.12-.84.16-.16.44-.2.48-.48a.688.688,0,0,0-.32.04A38.317,38.317,0,0,0,6.34.6c-.44.36-.8.76-1.24,1.12a29.38,29.38,0,0,0-1.88,2.4,3.125,3.125,0,0,0-.68,1.92,3.655,3.655,0,0,0,.72,2.64c.6.8,1.16.96,1.96.48a.612.612,0,0,0,.28-.2c.36-.12.56-.48.88-.68A13.229,13.229,0,0,0,7.66,6.96a1.023,1.023,0,0,0,.4-.76c.28,0,.4-.16.56-.4.32-.4.56-.64.88-1.08a4.808,4.808,0,0,0,1.12-1.48c.32-.52.64-1.04.96-1.64.08-.12.36.12.36-.16a.509.509,0,0,1,.28-.48c-.12-.24.12-.32.36-.32l.04-.2a.362.362,0,0,1,.08-.48c.44-.12.44-.48.44-.76.08-.04.12-.12.24-.12C13.38-.84,13.38-.8,13.46-.84ZM12.1.12a8.786,8.786,0,0,1-1.12,1.76c-.04.04-.24.04-.32.2V1.72a.543.543,0,0,0,.28-.44c.16,0,.16-.08.2-.24.12-.08.12-.24.12-.4-.16.08-.12.28-.16.4-.12,0-.16.04-.28.24-.16.08-.2.2-.16.44-.32.04-.36.2-.36.56l.36-.2-.08.48A13.675,13.675,0,0,1,8.94,5c-.32.4-.64.8-.92,1.2A4.4,4.4,0,0,0,6.9,7.36c-.2.16-.32.48-.72.48-.04-.2,0-.36.16-.4A15.5,15.5,0,0,0,7.38,6.2c.16-.08.16-.28.24-.4.04-.08.2-.08.24-.12.32-.44.76-.6.76-1.12A2.752,2.752,0,0,0,7.54,5.8a6.148,6.148,0,0,0-.68.76,11.147,11.147,0,0,1-1.52,1.2,2.111,2.111,0,0,1-.88.32.647.647,0,0,1-.88-.72.4.4,0,0,1,.04-.16A6.286,6.286,0,0,1,4.9,4.68l.32-.4a2.32,2.32,0,0,1,.84-1.04,5.449,5.449,0,0,1,.68-.68c.52-.48.92-1,1.56-1.52C9.14.4,9.98-.24,10.82-.84c.28-.2.44-.36.64-.48a3.274,3.274,0,0,0,1.24-1h.16c.04,0,.04.16.04.16-.04.2-.12.32-.2.6-.28.04-.36.24-.44.52a.55.55,0,0,0-.16.48c.24-.12.24-.24.24-.48a.434.434,0,0,0,.36-.16v.4C12.5-.52,12.34-.16,12.1.12ZM15.42-11.6c-1.08.92-2.2,1.88-3.36,2.8L9.5-6.92l-.48.28c-.52.24-.96.64-1.48.84a2.081,2.081,0,0,1-1.16.28,2.644,2.644,0,0,1,.52-1,15,15,0,0,1,3-2.76c0-.12,0-.12.08-.12a3.245,3.245,0,0,1,1.44-1.2c.56-.28,1.08-.8,1.68-1.08.52-.2.96-.68,1.52-.84a1.38,1.38,0,0,0,.36-.32l.28-.2c.16-.12.44-.08.48,0,0,.16.08.28,0,.44a4.589,4.589,0,0,1-.32.56h.32A.549.549,0,0,1,15.42-11.6ZM12.78-3.64c.12-.08.32-.16.36-.4H13.1A10.142,10.142,0,0,0,11.14-3v.2c.12,0,.28-.16.52-.2a.556.556,0,0,1,.6-.24A.662.662,0,0,1,12.78-3.64ZM7.22.44a.122.122,0,0,1,.16,0,4.145,4.145,0,0,1-1.36,1.4c0-.12,0-.28.04-.28A6.083,6.083,0,0,1,7.22.44ZM9.46,3.52a1.586,1.586,0,0,0-.84,1.04,1.973,1.973,0,0,0,.88-1,.777.777,0,0,0,.32-.64A.54.54,0,0,0,9.46,3.52ZM21.5-7.16c-.16.04-.36,0-.56.04v.16c.16.04.2.16.36.16.2.08.32,0,.56-.12.12-.16.28-.2.28-.36A1.22,1.22,0,0,0,21.5-7.16ZM7.62.08a1.252,1.252,0,0,1,1-.64c-.24.4-.48.76-1,.76ZM23.78-8.16a.078.078,0,0,1,.08-.08,2.684,2.684,0,0,1,1.32-.32A1.9,1.9,0,0,1,23.78-8.16ZM5.38,8.4a.86.86,0,0,1,.76-.56C6.02,8.12,5.86,8.48,5.38,8.4ZM11.26.64a.555.555,0,0,0,.48-.56A.506.506,0,0,0,11.26.64Zm8.4-8.2a1.98,1.98,0,0,0-.52.16c-.12,0-.32.12-.16.24A.788.788,0,0,0,19.66-7.56ZM12.78-1.24v-.32a.933.933,0,0,1,.36-.28C13.14-1.52,13.1-1.32,12.78-1.24ZM11.74.08a.823.823,0,0,0,.36-.64A.589.589,0,0,0,11.74.08ZM13.7-2.6c-.08.12-.16.4-.32.4a.626.626,0,0,1,.16-.52l.08-.08A.22.22,0,0,1,13.7-2.6Zm9.04-5.8h-.36c.08-.2.36-.16.56-.16C22.94-8.44,22.86-8.4,22.74-8.4Zm-2.8,1.68c-.08.28-.28.2-.48.2.08-.16.2-.2.4-.2Zm-7,3.76a1.09,1.09,0,0,0,.48-.24c0-.04,0,0,.04,0-.08.2-.2.24-.32.4l-.04-.08C12.94-2.88,12.94-2.96,12.94-2.96Zm.2,1.12c0-.2-.04-.32.24-.36C13.38-2.04,13.38-1.88,13.14-1.84ZM10.06,2.72a.4.4,0,0,0,.24-.44C10.06,2.36,10.06,2.56,10.06,2.72ZM21.94-8.16c.04-.24.28-.16.44-.24C22.26-8.08,22.14-8.16,21.94-8.16Zm1.48-.44h-.44a.311.311,0,0,1,.4-.12.907.907,0,0,1,.16.04S23.54-8.6,23.42-8.6Zm1.52-.6c.04,0,.08.08.16.08-.04.04-.04.04-.08.04h-.6A.777.777,0,0,1,24.94-9.2ZM13.54-4.28c-.16,0-.32-.04-.4.16C13.38-4.04,13.46-4.04,13.54-4.28ZM43.94-9c0-.04-.24-.72-.36-.6a3.063,3.063,0,0,0-1,.16,1.934,1.934,0,0,1-.84.48,16.975,16.975,0,0,0-1.8.44c-1,.2-1.96.4-2.92.56a4.062,4.062,0,0,1-1.96,0,12.173,12.173,0,0,0,.52-1.4,3.112,3.112,0,0,0-.64-3.12,4.052,4.052,0,0,1-.56-.8c-.12-.12.04-.12.12-.12.2-.12.2-.44,0-.48-.48-.16-.92-.48-1.48-.28a2.138,2.138,0,0,1-.88.12,2.642,2.642,0,0,0-1.12,0,1.192,1.192,0,0,0-.76.16,13.7,13.7,0,0,0-1.6.68,5.785,5.785,0,0,0-.88.84,1.485,1.485,0,0,0-.28,1.12,1.4,1.4,0,0,1-.52,1.12c-.48.52-.84,1.08-1.28,1.6a8.656,8.656,0,0,0-1.92,3.88,2.787,2.787,0,0,0-.24,1.08A2.626,2.626,0,0,0,26.06-.92a5.482,5.482,0,0,0,2.6-.68c1.2-.64,2.16-1.56,3.32-2.28a1.245,1.245,0,0,0,.16-.24l1.4-1.48c.72-1.04.68-.88,1.88-.88a18.786,18.786,0,0,0,2.16-.08,10.125,10.125,0,0,1,1.52-.12.485.485,0,0,0,.48-.28A16.6,16.6,0,0,1,41.5-7.4ZM31.9-6.48a11.772,11.772,0,0,0-1,.96,16.98,16.98,0,0,1-3.92,2.68,2.173,2.173,0,0,1-1.12.24h-.64c-.24-.08-.48-.28-.36-.52.32-.6.52-1.4.84-2.04.44-.76.8-1.48,1.16-2.24a7.536,7.536,0,0,1,.92-1.68c.04-.16.2-.16.4.04a5.788,5.788,0,0,0,3.4,2.12c.04.12.16.12.2.16C31.9-6.76,31.94-6.56,31.9-6.48Zm2.32-4.24a5.05,5.05,0,0,1-.8,2.28.738.738,0,0,1-.8.32,8.626,8.626,0,0,1-2.12-.52,2.993,2.993,0,0,1-1.36-.72c-.04-.12-.2-.24-.28-.36q-.3-.24,0-.48l.88-.8a14.321,14.321,0,0,1,1.56-1.16,8.683,8.683,0,0,1,1.56-1c.04-.04.16,0,.24,0a1.19,1.19,0,0,1,.32.28A2.267,2.267,0,0,1,34.22-10.72ZM61.3-9c0-.04-.24-.72-.36-.6a3.063,3.063,0,0,0-1,.16,1.934,1.934,0,0,1-.84.48,16.975,16.975,0,0,0-1.8.44c-1,.2-1.96.4-2.92.56a4.062,4.062,0,0,1-1.96,0,12.173,12.173,0,0,0,.52-1.4,3.112,3.112,0,0,0-.64-3.12,4.052,4.052,0,0,1-.56-.8c-.12-.12.04-.12.12-.12.2-.12.2-.44,0-.48-.48-.16-.92-.48-1.48-.28a2.138,2.138,0,0,1-.88.12,2.642,2.642,0,0,0-1.12,0,1.192,1.192,0,0,0-.76.16,13.7,13.7,0,0,0-1.6.68,5.785,5.785,0,0,0-.88.84,1.485,1.485,0,0,0-.28,1.12,1.4,1.4,0,0,1-.52,1.12c-.48.52-.84,1.08-1.28,1.6a8.656,8.656,0,0,0-1.92,3.88,2.787,2.787,0,0,0-.24,1.08A2.626,2.626,0,0,0,43.42-.92a5.482,5.482,0,0,0,2.6-.68c1.2-.64,2.16-1.56,3.32-2.28a1.245,1.245,0,0,0,.16-.24L50.9-5.6c.72-1.04.68-.88,1.88-.88a18.786,18.786,0,0,0,2.16-.08,10.125,10.125,0,0,1,1.52-.12.485.485,0,0,0,.48-.28,16.6,16.6,0,0,1,1.92-.44ZM49.26-6.48a11.772,11.772,0,0,0-1,.96,16.98,16.98,0,0,1-3.92,2.68,2.173,2.173,0,0,1-1.12.24h-.64c-.24-.08-.48-.28-.36-.52.32-.6.52-1.4.84-2.04.44-.76.8-1.48,1.16-2.24a7.536,7.536,0,0,1,.92-1.68c.04-.16.2-.16.4.04a5.788,5.788,0,0,0,3.4,2.12c.04.12.16.12.2.16C49.26-6.76,49.3-6.56,49.26-6.48Zm2.32-4.24a5.05,5.05,0,0,1-.8,2.28.738.738,0,0,1-.8.32,8.626,8.626,0,0,1-2.12-.52,2.993,2.993,0,0,1-1.36-.72c-.04-.12-.2-.24-.28-.36q-.3-.24,0-.48l.88-.8a14.32,14.32,0,0,1,1.56-1.16,8.683,8.683,0,0,1,1.56-1c.04-.04.16,0,.24,0a1.19,1.19,0,0,1,.32.28A2.267,2.267,0,0,1,51.58-10.72Zm34.84.36c-.08-.04-.16-.2-.28-.24-.2-.24-.72-.08-.84-.48a1.063,1.063,0,0,0-.92.04A36.58,36.58,0,0,0,80.9-8.8c-1.68,1.36-3.4,2.52-5.08,3.96a28.043,28.043,0,0,1-3.24,2.36,7.1,7.1,0,0,1-2.8,1.28c-.88.36-1.04.12-.84-.76a10.01,10.01,0,0,1,1.08-2.4,6.029,6.029,0,0,0,.48-.8,5.533,5.533,0,0,1,.68-1.28c.52-.68.84-1.44,1.36-2.16.12-.2.16-.6.32-.8a.618.618,0,0,0,.32-.68s0-.16.04-.16c.48-.08.64-.6.92-.92.84-1.16,1.6-2.32,2.44-3.36.56-.6.92-1.32,1.44-1.96.52-.68,1.08-1.48,1.56-2.24a10.17,10.17,0,0,0,1.12-1.16A17.29,17.29,0,0,1,83.54-23c.32-.32.68-.72,1.04-1.04.28-.24.4-.52.24-.8a.78.78,0,0,1,0-.6,1.955,1.955,0,0,0,.04-.52.719.719,0,0,0-1.16-.48,10.24,10.24,0,0,0-1.2,1.12,10.765,10.765,0,0,1-1.76,2.04c-.56.64-1.24,1.28-1.88,1.96a.532.532,0,0,0-.12.32c.04.6-.28.92-.68,1.4-.68.88-1.44,1.88-2.24,2.8a9.017,9.017,0,0,1-1.4,1.8c-.32.24-.6.52-.92.8a24.377,24.377,0,0,1-2.32,2.6l-.24.12c-.2.08-.24,0-.28-.04a.292.292,0,0,1-.08-.36,1.024,1.024,0,0,0,.12-.64c-.04.04-.12.16-.2.2-.32.16-.32.16-.64,0A8.283,8.283,0,0,0,68.9-13a7.175,7.175,0,0,0-2.08-.48,3.866,3.866,0,0,0-2,.76,27.522,27.522,0,0,0-2.48,2.36,9.63,9.63,0,0,0-1.48,1.64,19.967,19.967,0,0,0-2.24,4.04,3.54,3.54,0,0,0-.4,2A2.525,2.525,0,0,0,59.94-.44a1.983,1.983,0,0,0,.84,0,4.677,4.677,0,0,0,1.64-.88c.12-.04.2-.2.44-.24a3.446,3.446,0,0,0,1.16-1.12A2.376,2.376,0,0,0,64.46-3,27.658,27.658,0,0,0,67.3-5.88a15.332,15.332,0,0,1,1.44-1.76c.52-.6,1.16-1.08,1.68-1.8a2.646,2.646,0,0,1,.76-.6,1.051,1.051,0,0,1-.28.6c-.48.72-.88,1.48-1.32,2.2-.56,1.12-1.16,2.28-1.68,3.4a1.371,1.371,0,0,0-.16.64A3.162,3.162,0,0,0,69.26.44a1.312,1.312,0,0,0,.76.16A5.41,5.41,0,0,1,71.34.24a1.831,1.831,0,0,0,.96-.32c.8-.44,1.52-.96,2.32-1.4a6.989,6.989,0,0,0,1.12-.68c1.08-.84,2.04-1.68,3.12-2.6.32-.2.56-.52.92-.76a6.552,6.552,0,0,0,1.04-.8c1.36-.96,2.72-2,4.04-2.88a2.839,2.839,0,0,1,1.24-.52,1,1,0,0,0,.32-.2C86.5-9.96,86.5-10.32,86.42-10.36ZM63.82-5.48c-.76.64-1.48,1.32-2.16,1.88L60.02-2.52a.593.593,0,0,1-.28.04.288.288,0,0,1-.04-.32,12.629,12.629,0,0,1,.8-2.16,17.027,17.027,0,0,1,2-2.72,3.92,3.92,0,0,0,.68-.92,1.4,1.4,0,0,1,.48-.6,9.752,9.752,0,0,1,1.68-1.4,3.988,3.988,0,0,1,2.8-.88h.92c.16,0,.2.12.16.32-.44.48-.8.92-1.2,1.44-.28.28-.56.48-.92.8C66.14-7.76,64.94-6.6,63.82-5.48Zm6.04-4.88-.28.32c-.32.36-.64.76-1,1.12a22.235,22.235,0,0,1-2.64,2.48,3.048,3.048,0,0,1-.52.28c.16-.24.4-.44.52-.64a2.024,2.024,0,0,0,.32-.36l2.64-2.92a2.21,2.21,0,0,1,.56-.68.2.2,0,0,1,.32,0C69.86-10.6,69.9-10.4,69.86-10.36Zm1.48-2.36a5.694,5.694,0,0,0,1.04-1.16v-.08c.08,0,.16,0,.16-.04a14.418,14.418,0,0,0,1.48-1.64c.4-.32.8-.8,1.2-1.12.4-.2.44-.56.52-.92a.173.173,0,0,1-.08-.16s-.04,0-.04.12c-.12.04-.16.16-.24.32-.04.08-.28.08-.28.12a1.646,1.646,0,0,1-.76.8,6.121,6.121,0,0,0-.52.64c-.44.44-.88.8-1.24,1.24a.515.515,0,0,0-.2.64,2.211,2.211,0,0,1-.36-.04l-1.08,1.24C71.06-12.72,71.22-12.6,71.34-12.72Zm9.08,5.44c-.36.16-.52.32-.92.2.28-.32.72-.48,1.04-.8a2.033,2.033,0,0,1,1-.68,9.222,9.222,0,0,1,1.44-1,1.541,1.541,0,0,1,1-.36,4.746,4.746,0,0,1-.92.64C82.18-8.68,81.26-7.96,80.42-7.28ZM78.06-5.8a.961.961,0,0,1,.68-.36A.619.619,0,0,1,78.06-5.8Zm1.12-.8a.327.327,0,0,1,.32-.36C79.5-6.6,79.5-6.6,79.18-6.6Zm42.28-7.92c0,.04,0,.12-.16.2a.414.414,0,0,1-.04-.16v-.36a1.622,1.622,0,0,1-.2.36V-14c.2.12.2.28,0,.4V-14a.373.373,0,0,0-.2.4h.2c0,.2,0,.32-.2.4v-.36c-.2,0-.2.2-.2.36h.2a1.859,1.859,0,0,1-.56.92v-.16h-.08v.16h.08a1.4,1.4,0,0,0-.2.32c-.16.24-.44.44-.6.72a.9.9,0,0,1-.04.28,5.909,5.909,0,0,0,1-1c.28-.32.52-.64.8-.92,0,0,.04.04.2.04v.08a21,21,0,0,1-2.48,2.8.241.241,0,0,1-.16.04h-.04v-.4a.381.381,0,0,0-.32.4h.32a.658.658,0,0,1-.08.4c-.44.12-.64.48-1,.72a3.476,3.476,0,0,1-.64.68c-.04.08-.24,0-.28.08.04-.44.44-.56.64-.8a1.886,1.886,0,0,0,.4-.4c-.32-.08-.48.08-.68.2a2.554,2.554,0,0,0-.76.68,31.3,31.3,0,0,1-4.12,3.04,1.957,1.957,0,0,1-.52.32c-.44.28-.96.44-1.44.8a5.265,5.265,0,0,1-2.28.36c-.32,0-.48-.08-.48-.52a4.087,4.087,0,0,1,.44-1.76l1.2-2.4a2.791,2.791,0,0,1,.92-1.28c.16-.12.2-.24.36-.28a6.517,6.517,0,0,1,.68-.88c.2-.24.44-.36.6-.56.04-.08.04-.4-.04-.44-.36-.24-.64-.48-1.08-.32a1.349,1.349,0,0,0-.8.36,10.4,10.4,0,0,1-1.16,1.12c-.84.76-1.76,1.48-2.64,2.28A7.421,7.421,0,0,0,104.34-7c-.88.88-1.76,1.76-2.72,2.6a1.3,1.3,0,0,1-.64.48c0-.16,0-.24.08-.28.2-.4.48-.76.72-1.2a8.631,8.631,0,0,0,.68-1.24,6.449,6.449,0,0,0,1.08-2.16,4.894,4.894,0,0,1,.72-1.36.535.535,0,0,0-.08-.64,1.5,1.5,0,0,0-1.28-.32.549.549,0,0,0-.48.48,3.693,3.693,0,0,1-.6,1c-.88,1.88-1.88,3.64-2.8,5.48a8.346,8.346,0,0,0-.56,1.2,1.923,1.923,0,0,0,.24,2,.787.787,0,0,0,1.12.16c.64-.76,1.64-.96,2.08-1.88a8.462,8.462,0,0,0,1.68-1.72A32.528,32.528,0,0,0,106.22-7c.04-.12.12-.12.28-.16,0,0,.12-.12.12,0,.04,0,.04.16.04.16l-.16.88a3.738,3.738,0,0,0,.76,3.44c0,.08.08.08.12.12a2.135,2.135,0,0,0,2.08.28,7.465,7.465,0,0,1,1-.16,10.108,10.108,0,0,0,1.96-.8c.48-.28.96-.6,1.32-.84a10.42,10.42,0,0,0,3.12-2.6l2.44-2.36a29.461,29.461,0,0,0,2.8-3.4,2.154,2.154,0,0,0,.36-1.28v-.76a3.864,3.864,0,0,0-1-2.64,2.8,2.8,0,0,0-.68-.36c-.04,0-.12.12-.32.12,0,.04,0,.08.12.16a5.374,5.374,0,0,1,.68,2.36A.3.3,0,0,1,121.46-14.52Zm-6.2,7.88h-.12a7.516,7.516,0,0,1,1.36-1.4h.28A5.448,5.448,0,0,1,115.26-6.64Zm-.56.2c.08-.2.24-.2.44-.2C115.06-6.36,114.94-6.44,114.7-6.44Zm-.8.6a.325.325,0,0,1,.36-.2C114.26-5.72,114.1-5.84,113.9-5.84ZM140.5-9c0-.04-.24-.72-.36-.6a3.063,3.063,0,0,0-1,.16,1.934,1.934,0,0,1-.84.48,16.976,16.976,0,0,0-1.8.44c-1,.2-1.96.4-2.92.56a4.062,4.062,0,0,1-1.96,0,12.173,12.173,0,0,0,.52-1.4,3.112,3.112,0,0,0-.64-3.12,4.052,4.052,0,0,1-.56-.8c-.12-.12.04-.12.12-.12.2-.12.2-.44,0-.48-.48-.16-.92-.48-1.48-.28a2.138,2.138,0,0,1-.88.12,2.642,2.642,0,0,0-1.12,0,1.192,1.192,0,0,0-.76.16,13.7,13.7,0,0,0-1.6.68,5.785,5.785,0,0,0-.88.84,1.485,1.485,0,0,0-.28,1.12,1.4,1.4,0,0,1-.52,1.12c-.48.52-.84,1.08-1.28,1.6a8.656,8.656,0,0,0-1.92,3.88,2.787,2.787,0,0,0-.24,1.08,2.626,2.626,0,0,0,2.52,2.64,5.482,5.482,0,0,0,2.6-.68c1.2-.64,2.16-1.56,3.32-2.28a1.245,1.245,0,0,0,.16-.24l1.4-1.48c.72-1.04.68-.88,1.88-.88a18.786,18.786,0,0,0,2.16-.08,10.125,10.125,0,0,1,1.52-.12.485.485,0,0,0,.48-.28,16.6,16.6,0,0,1,1.92-.44ZM128.46-6.48a11.772,11.772,0,0,0-1,.96,16.98,16.98,0,0,1-3.92,2.68,2.173,2.173,0,0,1-1.12.24h-.64c-.24-.08-.48-.28-.36-.52.32-.6.52-1.4.84-2.04.44-.76.8-1.48,1.16-2.24a7.536,7.536,0,0,1,.92-1.68c.04-.16.2-.16.4.04a5.788,5.788,0,0,0,3.4,2.12c.04.12.16.12.2.16C128.46-6.76,128.5-6.56,128.46-6.48Zm2.32-4.24a5.05,5.05,0,0,1-.8,2.28.738.738,0,0,1-.8.32,8.626,8.626,0,0,1-2.12-.52,2.993,2.993,0,0,1-1.36-.72c-.04-.12-.2-.24-.28-.36q-.3-.24,0-.48l.88-.8a14.321,14.321,0,0,1,1.56-1.16,8.684,8.684,0,0,1,1.56-1c.04-.04.16,0,.24,0a1.19,1.19,0,0,1,.32.28A2.267,2.267,0,0,1,130.78-10.72Zm25.68.6c-.92.36-4,2.72-5,2.92.08-.44.52-.76.64-1.24a1.669,1.669,0,0,1,.52-.64.639.639,0,0,0,.12-.84l-.64-.68a1.647,1.647,0,0,0-1.96-.44c-.96.48-1.96.84-2.96,1.32a30.566,30.566,0,0,0-5.24,3.48h-.12c-.04-.04-.04-.2,0-.2L142.9-8.4a10.719,10.719,0,0,1,1-1.88c.16-.12.04-.4-.08-.6l-.64-.36a.881.881,0,0,0-1.28.36,12.679,12.679,0,0,1-.92,1.96c-.72,1.44-1.48,2.92-2.28,4.28-.68,1.28-1.32,2.4-1.96,3.56a2.551,2.551,0,0,0-.32.56,3.539,3.539,0,0,0,0,.92c.16.28.4.48.6.8.04.04.16.04.32.12.24.12.36.08.52-.2.16-.36.52-.56.72-1a22.119,22.119,0,0,1,1.88-2.36,5.935,5.935,0,0,1,1.36-1.48c.24-.24.52-.4.72-.64.24-.16.52-.32.72-.48a39.424,39.424,0,0,1,4.92-3.36c.36-.2.8-.32,1.2-.52.12-.04.32.08.32.2a2.155,2.155,0,0,0,.36,1.96c.04.2.16.32.2.56a.593.593,0,0,0,.6.32,2.079,2.079,0,0,0,1.92-.72c.32-.52,3.12-2.32,3.44-2.84a1.925,1.925,0,0,0,.32-.64C156.54-9.92,156.54-10.08,156.46-10.12ZM175.3-23.2v-.08a5.309,5.309,0,0,1,.84-.76,1.625,1.625,0,0,0,.56-.6,8.421,8.421,0,0,1,1.56-1.8,5.1,5.1,0,0,1,.6-1,.8.8,0,0,0-.08-.84,2.07,2.07,0,0,0-1.68-.68,1.686,1.686,0,0,1-.76-.12.76.76,0,0,0-.56.12,9.865,9.865,0,0,0-2.76,1.16,13.075,13.075,0,0,0-3.16,2.2,22.994,22.994,0,0,0-3.88,3.76c-.96,1.16-2,2.28-2.96,3.56-.12.04-.16.2-.24.36h.24a.79.79,0,0,1-.24.48v-.48c-.24.08-.24.24-.24.48h.24q-.18.18-.24,0c-.44.12-.64.56-.8.96h.16c0,.2,0,.36-.16.48v-.48a1.513,1.513,0,0,0-.64.8h.28c-.12.04-.2.2-.28.24v.04a.383.383,0,0,1-.2.36v-.36a.224.224,0,0,0-.12.36h.12c-.04.08-.12.08-.2,0a.79.79,0,0,0-.6.84h.16c0,.2-.04.2-.16,0-.28.2-.52.32-.4.56-.16,0-.24.08-.24.28h.24c-.12.16-.12.16-.24,0-.2.04-.16.24-.16.36a.118.118,0,0,1,.12.12l-.12.04c-.04.24-.04.36-.16.48-.2.16-.2.16-.24.04v-.04h-.08a.14.14,0,0,1,.08.04.541.541,0,0,0-.4.6h.12c0,.04,0,.04-.04.12,0-.08,0-.08-.08-.12a.8.8,0,0,0-.56.76s.04,0,.12.08v.12c-.12.2-.12.2-.36,0-.28.2-.28.56-.44.84.2.2.2.24,0,.4v-.4a1.248,1.248,0,0,0-.64,1.04,1.093,1.093,0,0,0-.44.64c-.36.16-.36.48-.4.8-.24.16-.44.32-.44.64a.173.173,0,0,1,.16.08c-.16.08-.16,0-.16-.08a3.009,3.009,0,0,0-.84,1.36c-.28.16-.32.44-.44.6a9.317,9.317,0,0,0-.56,1.32,2.2,2.2,0,0,0-.44,1.2,1.586,1.586,0,0,1-.16.8.946.946,0,0,0,.32,1.44c.16.04.44.04.44-.16.08-.28.16-.44.52-.48.2,0,.32-.12.28-.36,0-.24.04-.28.24-.4a3.511,3.511,0,0,0,.6-.48c.84-.72,1.64-1.52,2.48-2.2a10.871,10.871,0,0,1,1.68-1.36.078.078,0,0,1,.08-.08.312.312,0,0,0,.16.12.764.764,0,0,0,0,.72c0,.16,0,.4-.12.48A7.335,7.335,0,0,1,159.3-3a5.174,5.174,0,0,0,.64,3.4,2.974,2.974,0,0,0,2.16,1.48,4.155,4.155,0,0,0,2.32-.04,6.732,6.732,0,0,0,2.12-.76,10.981,10.981,0,0,0,2.28-1.12c.76-.4,1.44-.8,2.24-1.2.04-.08.2-.12.32-.28.64-.44,1.32-.84,1.96-1.2.56-.28,1.04-.6,1.56-.92a2.96,2.96,0,0,1,.92-.64A15.55,15.55,0,0,1,177.46-5c.48-.24.84-.8,1.4-.96.08,0,.08-.16.08-.32-.16-.04-.16-.12,0-.16v.04l.04-.04h-.04c.04-.16.28-.16.44-.16v.16c.4-.08.68-.16.84-.64,0-.04.16-.08.24-.04a1.827,1.827,0,0,0,.64-.04,4.158,4.158,0,0,1,2.12-.88c.12,0,.12,0,.16-.04v-.16c0-.44-.36-.56-.6-.88-.04-.16-.24-.12-.44-.16a.983.983,0,0,0-1.08.16,2.793,2.793,0,0,1-.96.52,10.51,10.51,0,0,0-2.16,1.2,1.229,1.229,0,0,1-.48.28c-.4.2-.68.48-1,.6-.88.52-1.68,1.04-2.6,1.52a11.946,11.946,0,0,0-2.2,1.2c-.64.44-1.4.8-2.08,1.2-.56.28-1.04.52-1.6.76a25.145,25.145,0,0,1-3.76,1.8,6.781,6.781,0,0,1-3.24.36.335.335,0,0,1-.32-.24c-.08-.12-.16-.16-.16-.32.08-.8.08-1.6.08-2.28a3.805,3.805,0,0,1,.16-.72c.12-.24.24-.36.48-.36a6.5,6.5,0,0,0,2.32-.68c.76-.2,1.32-.88,2.12-.96.12,0,.16-.04.28-.2l1.52-1.08a11.459,11.459,0,0,0,1.92-1.44,2.58,2.58,0,0,0,.88-1.32,4.8,4.8,0,0,0,.6-1.48.381.381,0,0,0-.08-.28,1.88,1.88,0,0,0-1.72-1.16,3.158,3.158,0,0,0-1.68.32,4.151,4.151,0,0,0-.4.16,2.212,2.212,0,0,0-1.36.56,4.665,4.665,0,0,1-1.8.84,1.916,1.916,0,0,1-.64.28,6.152,6.152,0,0,0-.48.52c-.36-.16-.52.12-.68.28a1.031,1.031,0,0,0-.52.32,8.486,8.486,0,0,0-1.44.84,35.093,35.093,0,0,0-3,2.32,3.173,3.173,0,0,1-.64.32,1.667,1.667,0,0,1,.36-.96c.28-.32.52-.72.8-1.04.2-.36.56-.64.56-1.16a1.848,1.848,0,0,0,.28-.28c.16-.04.32-.2.52-.24a7.293,7.293,0,0,0,2.96-1.44,41.1,41.1,0,0,0,3.72-2.8,15.9,15.9,0,0,1,1.2-1.12c.28-.2.44-.52.72-.68.36-.24.52-.6.92-.76.08,0,.12-.04.16-.2a3.486,3.486,0,0,1,1.32-1.32c.08-.16.24-.24.28-.4a10.011,10.011,0,0,1,1.36-1.24c.08,0,.08-.12.08-.12,0-.04,0-.04-.08-.16-.04-.04-.04-.12-.16-.2a1.869,1.869,0,0,0,.4-.2.439.439,0,0,0,.16-.36.767.767,0,0,0,.68-.24,14.135,14.135,0,0,0,1.28-1.36c.2-.12.24-.4.44-.64.32.08.32-.28.44-.44-.12-.08-.12-.2,0-.24C175.18-23.16,175.22-23.2,175.3-23.2Zm-9.92,4.28a10.49,10.49,0,0,0,1.12-1.16,4.623,4.623,0,0,0,.52-.8c.12-.12.12-.32.16-.44a2.376,2.376,0,0,0,.44-.32c.04-.08.24-.12.32-.2A8.4,8.4,0,0,1,169.78-24a4.794,4.794,0,0,0,.84-.68,2.4,2.4,0,0,0,.92-.64,7.766,7.766,0,0,1,2.48-1.6c.56-.28,1.16-.56,1.6-.84a3.27,3.27,0,0,0,.96-.6.845.845,0,0,1,1.08-.04c.16.12.16.32.12.6a3.552,3.552,0,0,0-.64.88c-.16.08-.16.24-.2.36-.12.12-.24.16-.24.24-.24.04-.28.24-.4.36.12,0,.16.16.28.16v.12l-.28.2v-.48c-.28.28-.6.48-.68.96-.08,0-.12.04-.12.08-.16.08-.2.16-.2.28h.16c0,.08-.12.16-.16.16v-.16c-.08,0-.12.08-.28.16-.12,0-.16.16-.16.2h.16c-.04.12-.04.16-.12.16a.631.631,0,0,0-.04-.16l-1.84,1.88-.36.36c-.28.28-.6.52-.92.84-.2.2.28.2.12.32-1.16,1.12-2.28,2.16-3.56,3.2-2.04,1.76-4.28,3.56-6.48,5.16-.28.2-.64.48-.92.64-.04.08-.2.08-.28.08a.551.551,0,0,1,0-.36,2.463,2.463,0,0,0,.76-1c0-.04,0-.16.04-.2a5.994,5.994,0,0,0,.8-.96,2.24,2.24,0,0,1,.68-.96,2.483,2.483,0,0,0,.32-.48c.12-.68.64-.92,1.04-1.36.16-.16.28-.28.28-.48A5.242,5.242,0,0,1,165.38-18.92ZM160.22-6a.874.874,0,0,1,.48-.44c.48-.28,1-.68,1.52-1a11.011,11.011,0,0,1,1.52-.96c.88-.48,1.64-1,2.52-1.52a1.478,1.478,0,0,0,.56-.28c.76-.2,1.48-.56,2.24-.84h.2c0,.16.08.2,0,.28a4.14,4.14,0,0,1-1.52,2.16,24.822,24.822,0,0,1-3.12,2.44,4.143,4.143,0,0,1-1.28.56c-.24.08-.44.32-.68.36-.12.08-.32.12-.56.24-.2,0-.2-.28-.36-.48A1.642,1.642,0,0,0,160.62-6ZM181.5-8.08c-.36.12-.64.28-1,.4-1.52.76-3,1.56-4.44,2.44-.72.36-1.28.76-2,1.08-1.2.64-2.44,1.44-3.64,2.08-.32.2-.72.32-1.08.56h-.36a5.633,5.633,0,0,1,1.48-1.08c.88-.48,1.72-1,2.6-1.52.28-.2.68-.32.96-.56l1.32-.76A13.819,13.819,0,0,0,176.7-6c.68-.4,1.4-.72,2-1.12.92-.44,1.8-.84,2.72-1.32h.36C181.78-8.24,181.62-8.16,181.5-8.08ZM155.82-5.8h-.2a2.91,2.91,0,0,1,.76-1.48c.08,0,.16-.16.24,0l.2.32-.08.04c-.4-.2-.44.2-.6.4A2.842,2.842,0,0,0,155.82-5.8Zm1.6-3v.36c-.12.04-.16.12-.24.2-.04.16-.2.2-.36.36C156.94-8.32,156.98-8.68,157.42-8.8Zm4.32-6.36a.665.665,0,0,1-.64.68A.99.99,0,0,1,161.74-15.16Zm5.84-1.08a1.9,1.9,0,0,1,.88-.84A1.927,1.927,0,0,1,167.58-16.24Zm9.12-10.04c.16,0,.24-.04.24-.16.04,0,.04-.12.16-.12.16-.08.16-.08.16.16v.12c-.08,0-.08.12-.12.16C176.94-26.12,176.82-26.08,176.7-26.28ZM155.5-5.44a.593.593,0,0,0-.16.44h-.16c0-.12,0-.24.08-.28,0-.24.04-.48.36-.52A.956.956,0,0,1,155.5-5.44Zm14.88-13.32a.523.523,0,0,1,.56-.32A.556.556,0,0,1,170.38-18.76Zm-6.8,1.08c0,.36,0,.36-.4.36A.721.721,0,0,1,163.58-17.68Zm5.36.24c.04-.24.16-.24.4-.24C169.26-17.44,169.1-17.44,168.94-17.44Zm-9.48,5.24v.48h-.16C159.3-11.88,159.3-12.16,159.46-12.2Zm.84-.96c0-.2-.04-.4.12-.48C160.58-13.36,160.42-13.32,160.3-13.16Zm15-10.04v.16C175.46-23.16,175.46-23.2,175.3-23.2ZM155.82-5.8c.04.04.04.04.16.04C155.82-5.6,155.82-5.76,155.82-5.8Z" transform="translate(180.956 29.816)" fill="#fff" opacity="0.5"/>
</svg>
